# xmcd
#
# Track frame offsets:
#	183
#	15128
#	31568
#	49473
#	63078
#	78448
#	94418
#	126663
#	139300
#	154625
#	167863
#	181348
#	197455
#	213808
#
# Disc length: 3027 seconds
#
# Revision: 3
# Processed by: cddbd v1.5.2PL0 Copyright (c) Steve Scherf et al.
# Submitted via: audiograbber 1.83.01
#
DISCID=b40bd10e
DTITLE=Hier nichts eintragen - World Hits 1973
DYEAR=1973
DGENRE=Oldies
TTITLE0=New Seekers - You Won´t Find Another Fool Like Me (1.UK)  (1973)
TTITLE1=Rod Stewart - Oh No Not My Baby (6.UK)  (1973)
TTITLE2=Demis Roussos - Goodbye Me Love Goodbye (1.GER)  (1973)
TTITLE3=David Bowie - The Laughing  Gnome (6.UK)  (1973)
TTITLE4=Medicine Head - One And One Is One (2.GER)  (1973)
TTITLE5=Peters and Lee - Welcome Home (1.UK)  (1973)
TTITLE6=Barry White - I´m Gonna Love You (3.US)  (1973)
TTITLE7=Mungo Jerry - Alright Alright Alright (3.UK)  (1973)
TTITLE8=Nazareth - This Flight Tonight (1.GER)  (1973)
TTITLE9=Strawbs - Part Of The Union (2.UK)  (1973)
TTITLE10=Limmie and The Family Cookin - Yo Can Do Magic (3.UK)  (1972)
TTITLE11=Roy Buchanan - Sweet Dreams  (1972)
TTITLE12=Junior Campbell - Sweet Illusions (15.UK)  (1972)
TTITLE13=Stuart Gillis - Amanda (13.UK)  (1973)
EXTD=
EXTT0=
EXTT1=
EXTT2=
EXTT3=
EXTT4=
EXTT5=
EXTT6=
EXTT7=
EXTT8=
EXTT9=
EXTT10=
EXTT11=
EXTT12=
EXTT13=
PLAYORDER=
